<?xml version="1.0" standalone="no"?>
<svg version="1.0" xmlns="http://www.w3.org/2000/svg"
 width="14px" height="14px" viewBox="0 0 128.000000 128.000000"
 preserveAspectRatio="xMidYMid meet" fill="red">
<g transform="translate(0.000000,128.000000) scale(0.100000,-0.100000)"
fill="#000000" stroke="none">
<path d="M734 1008 c-22 -10 -44 -47 -44 -73 0 -27 22 -63 47 -74 13 -6 76
-11 141 -11 l117 0 -157 -157 -158 -158 -115 115 c-160 159 -135 164 -375 -75
-186 -186 -190 -191 -190 -232 0 -33 5 -46 26 -62 56 -44 74 -34 239 129 l150
150 111 -110 c91 -92 116 -112 147 -117 l38 -6 205 204 204 203 0 -132 c0
-119 2 -134 20 -152 27 -27 93 -27 120 0 19 19 20 33 20 274 l0 255 -26 20
c-25 20 -39 21 -263 20 -141 0 -245 -5 -257 -11z"/>
</g>
</svg>
