<svg width="541" height="488" viewBox="0 0 541 488" fill="none" xmlns="http://www.w3.org/2000/svg">
<path d="M254.865 -68.5897C253.778 -67.6516 252.496 -66.9688 251.112 -66.5916C249.352 -66.5916 249.587 -66.5917 255.099 -58.2474C265.518 -42.7012 270.166 -23.9866 268.236 -5.36066C266.711 32.2477 252.871 64.4498 218.506 109.58C192.468 144.25 184.61 162.467 189.419 178.333C191.999 186.795 198.567 192.906 219.327 206.304C235.554 216.037 249.832 228.711 261.433 243.677C274.466 261.407 291.89 275.423 311.983 284.341C316.909 286.457 332.157 291.51 345.997 296.094C391.739 309.962 401.004 314.193 415.196 327.121C429.388 340.049 435.252 355.327 437.011 395.286C438.771 435.245 441.351 446.88 449.796 459.338C454.272 466.011 460.589 471.238 467.975 474.381C478.058 479.405 489.206 481.905 500.464 481.667C525.094 482.725 542.452 479.082 592.534 462.393C653.406 442.061 658.567 440.651 673.931 438.888C684.105 436.849 694.669 438.346 703.88 443.132C713.092 447.918 720.4 455.707 724.599 465.214C742.427 495.418 753.217 506.7 772.218 516.103C791.412 524.312 811.991 528.779 832.855 529.265C857.677 530.315 882.543 528.937 907.098 525.152L935.716 521.979H939V515.75C939 512.224 939 509.051 937.944 508.816C932.363 508.805 926.79 509.277 921.289 510.226C902.424 513.07 883.366 514.446 864.288 514.34C839.424 515.505 814.606 511.213 791.57 501.764C771.749 492.245 763.421 481.315 745.828 441.944C736.211 420.436 726.241 412.209 706.889 410.329C692.463 409.036 670.647 415.147 631.239 431.484C600.183 446.054 567.387 456.561 533.656 462.746C494.482 467.682 470.204 453.931 463.284 423.139C461.371 409.672 460.509 396.077 460.704 382.475C459.648 347.218 458.592 337.58 453.549 323.712C450.007 313.24 443.681 303.935 435.252 296.799C419.536 282.226 403.467 276.702 364.059 271.648C311.162 265.067 295.915 258.368 268.822 229.574C258.404 217.896 246.586 207.554 233.636 198.782C217.215 187.029 211.703 181.858 208.185 175.277C200.444 160.586 205.722 143.662 228.358 110.285C255.334 70.6787 266.828 46.5858 273.161 16.2641C276.261 -3.00332 276.261 -22.644 273.161 -41.9115C270.531 -52.3909 265.331 -62.0458 258.032 -70C256.793 -69.5311 255.643 -68.8558 254.63 -68.0023L254.865 -68.5897Z" fill="#7f5eff"/>
<path d="M289.467 -67.3C294.349 -52.1626 295.982 -36.1574 294.258 -20.3397C290.568 20.0988 278.634 59.3419 259.199 94.948C245.876 122.302 243.772 128.29 243.656 140.382C243.656 156.231 248.681 163.862 270.768 183.821C304.659 213.758 316.579 219.863 345.912 222.563C365.729 223.444 385.584 222.698 405.279 220.332C423.43 217.998 441.871 219.927 459.154 225.967C480.423 235.477 493.045 256.022 499.472 291.947C502.882 312.313 504.602 332.929 504.614 353.582C505.666 386.454 506.835 393.968 512.328 405.356C520.041 420.618 536.402 427.427 559.073 424.845C581.745 422.262 599.625 416.274 643.45 396.903C687.274 377.532 699.311 373.423 717.542 372.836C727.302 371.371 737.273 373.047 746.026 377.623C754.78 382.2 761.868 389.442 766.274 398.312C770.42 407.346 774.087 416.595 777.259 426.019C781.35 437.759 786.141 450.203 788.011 454.077C792.455 463.153 798.792 471.162 806.593 477.557C823.061 487.635 841.613 493.78 860.818 495.52C881.426 497.291 902.147 497.291 922.756 495.52L939 494.111V482.136H909.083C895.443 482.852 881.766 482.065 868.297 479.788C850.226 477.591 833.218 470.028 819.448 458.069C809.689 448.302 802.605 436.171 798.879 422.849C793.812 407.027 787.156 391.765 779.013 377.297C775.145 371.123 770.023 365.84 763.981 361.793C757.939 357.747 751.114 355.028 743.953 353.817C734.463 351.928 724.695 351.928 715.204 353.817C697.792 356.517 686.105 360.626 636.204 381.289C602.781 395.024 587.238 398.899 568.072 398.194C563.525 398.659 558.932 398.123 554.613 396.623C550.294 395.122 546.352 392.694 543.063 389.507C534.532 381.289 529.74 366.026 527.403 339.846C524.844 309.117 520.198 278.6 513.496 248.508C503.329 211.175 484.397 196.148 447.234 196.148C440.105 196.148 426.666 197.087 417.2 198.144L386.932 201.783C369.471 203.993 351.803 203.993 334.343 201.783C312.821 196.839 293.277 185.508 278.248 169.263C268.243 161.676 261.311 150.709 258.731 138.387C256.511 126.646 258.731 116.902 272.638 83.6777C288.207 48.3612 298.145 10.8028 302.088 -27.6185C303.336 -40.5758 302.548 -53.6496 299.751 -66.3606C298.816 -69.8826 298.699 -70 294.025 -70C289.35 -70 289.35 -70.0003 290.051 -67.7697L289.467 -67.3Z" fill="#7f5eff"/>
<path d="M346.699 -67.6503C346.699 -66.3578 345.411 -60.483 344.474 -54.3732C343.537 -48.2635 340.96 -36.6314 338.851 -28.2892C336.743 -19.947 332.293 -3.61524 329.13 8.25183C323.039 28.7481 319.691 49.966 319.174 71.3473C319.174 91.4391 322.688 101.779 331.941 110.121C337.706 115.268 344.677 118.865 352.204 120.578C361.622 123.132 371.428 123.929 381.134 122.928C405.73 122.928 411.235 122.223 459.022 112.001C506.809 101.779 522.035 99.6637 536.91 100.956C565.371 103.306 578.606 114.703 583.76 141.257C584.58 145.487 585.517 160.879 586.219 177.328C585.58 198.745 588.55 220.116 595.004 240.541C597.486 250.294 602.368 259.265 609.203 266.635C616.037 274.004 624.606 279.536 634.123 282.722C648.53 287.539 654.386 288.127 699.714 288.244C717.422 287.657 735.149 288.285 752.771 290.124C777.292 293.754 800.478 303.624 820.118 318.793C825.155 322.318 841.201 336.77 855.958 350.869C890.159 383.533 907.962 396.693 933.144 407.385L939 409.97V393.285L932.09 388.703C911.827 375.191 886.528 356.627 868.842 342.292C848.387 324.468 825.852 309.199 801.729 296.822C774.673 283.31 756.051 279.784 703.696 277.787C685.252 277.853 666.861 275.803 648.881 271.677C637.898 268.775 627.951 262.827 620.183 254.515C612.414 246.202 607.138 235.862 604.959 224.679C600.32 205.467 598.7 185.645 600.157 165.931C600.157 129.978 599.454 122.693 594.535 111.766C590.594 104.323 584.779 98.044 577.669 93.5538C562.869 86.6537 546.404 84.1661 530.234 86.3867C509.622 88.2972 489.209 91.9525 469.212 97.3138C417.911 109.063 413.226 109.768 388.161 109.768C377.894 110.995 367.486 110.075 357.591 107.066C351.267 105.511 345.442 102.365 340.667 97.9248C335.892 93.4841 332.324 87.8952 330.301 81.6866C328.286 74.0284 327.612 66.0771 328.31 58.1875C328.31 35.2758 330.418 24.3487 342.716 -18.1847C347.597 -34.1715 351.239 -50.5126 353.609 -67.0626C353.609 -69.765 353.609 -70 350.564 -70C347.519 -70 347.285 -70.0003 347.05 -67.7679L346.699 -67.6503Z" fill="#7f5eff"/>
<path d="M392.155 -62.6611C389.699 -52.5586 385.723 -37.5225 381.279 -22.6037C376.004 -7.82982 373.313 7.74983 373.327 23.4453C373.209 29.0839 374.624 34.648 377.42 39.5389C379.57 43.6107 382.542 47.1871 386.147 50.0392C389.751 52.8913 393.909 54.9563 398.353 56.1024C406.231 58.2555 414.424 59.0108 422.561 58.3344C444.312 58.3344 448.873 57.5121 498.341 46.5872C519.985 40.4743 542.292 37.0423 564.765 36.3673C579.862 35.2866 595.029 36.9176 609.555 41.1836C650.953 52.9308 663.817 80.5366 656.333 141.739C653.563 160.314 653.563 179.199 656.333 197.773C658.447 206.571 662.799 214.666 668.963 221.267C680.657 233.014 694.34 237.361 741.235 244.762C761.181 247.216 780.92 251.142 800.292 256.509C820.289 262.147 880.165 276.596 891.859 278.593C896.654 279.416 906.711 280.826 914.079 281.648C922.18 281.879 930.145 283.799 937.468 287.286C938.52 288.226 938.754 286.112 938.754 274.834C939.313 269.949 938.916 265 937.585 260.268C929.828 259.275 922.015 258.804 914.196 258.858C874.919 257.023 835.831 252.272 797.251 244.644C786.258 242.177 767.781 238.536 756.086 236.539C739.451 234.386 723.023 230.849 706.97 225.966C685.218 218.8 675.512 209.403 670.483 190.725C668.001 174.216 668.001 157.426 670.483 140.917C675.044 101.211 673.056 79.8316 662.882 60.8012C653.994 44.2377 638.791 35.1927 608.152 28.0269C597.652 25.8911 586.919 25.1407 576.226 25.7949C551.82 25.4745 527.503 28.8 504.071 35.6625C460.568 45.4126 443.377 47.4096 426.303 47.4096C399.873 45.8825 387.36 35.6625 385.84 14.4002C385.967 -1.60934 388.733 -17.4871 394.026 -32.5884C397.417 -45.6278 400.224 -58.0798 400.341 -60.1943C400.458 -62.3088 400.341 -63.8359 396.716 -64.1883C393.091 -64.5407 392.857 -64.1883 392.272 -61.6039L392.155 -62.6611Z" fill="#7f5eff"/>
<path d="M502.215 -63.1907C499.515 -63.1907 497.285 -62.4947 497.285 -62.0308C498.11 -60.2112 499.092 -58.4649 500.219 -56.8114C503.766 -51.8661 508.492 -47.8609 513.979 -45.1501C519.465 -42.4394 525.543 -41.1066 531.674 -41.2698C547.756 -40.4392 563.877 -40.7492 579.914 -42.1975C648.692 -45.9089 695.757 -40.8058 722.87 -27.1198C733.261 -21.337 741.832 -12.8273 747.635 -2.53155C753.018 7.87849 755.795 19.413 755.733 31.1034C758.315 66.8261 761.367 81.4399 770.052 98.8373C777.346 115.488 790.833 128.733 807.728 135.836C820.162 142.39 834.139 145.552 848.22 144.999C859.359 144.992 870.461 143.747 881.318 141.287C897.159 137.484 913.376 135.422 929.675 135.14H938.712V118.555C939.338 112.693 938.941 106.769 937.539 101.041C928.667 99.8907 919.726 99.3483 910.778 99.4175C865.474 98.2576 847.281 95.1259 824.629 84.3395C815.153 80.2487 806.519 74.4692 799.16 67.29C786.601 55.6917 783.08 45.3693 781.554 19.8531C781.596 9.24889 780.054 -1.3031 776.977 -11.4621C773.524 -20.4172 767.878 -28.3869 760.545 -34.6587C745.76 -48.1897 726.768 -56.367 706.672 -57.8552C670.688 -60.4502 634.56 -60.4502 598.575 -57.8552C558.2 -55.6515 542.942 -56.5795 531.44 -62.2626C526.96 -64.129 522.044 -64.7312 517.238 -64.0023C511.604 -64.0023 504.914 -64.0023 502.215 -64.0023V-63.1907Z" fill="#7f5eff"/>
<path d="M89.4838 -58.983L77.7713 -58.3974L83.3931 -56.6401C96.9121 -53.1358 110.645 -50.5144 124.504 -48.7922C129.612 -48.3546 134.669 -47.4527 139.613 -46.0979C136.784 -45.9915 133.952 -46.2275 131.18 -46.8007C113.246 -48.7716 95.4763 -52.0208 78.0054 -56.5232C68.7526 -58.9831 62.6621 -59.5688 64.419 -58.046C75.8011 -53.848 87.571 -50.7876 99.5563 -48.9094L130.009 -44.4582C151.259 -42.8249 172.065 -37.514 191.499 -28.7619C199.908 -24.9557 207.146 -18.9702 212.465 -11.4256C218.344 -3.54178 221.248 6.16658 220.663 15.9843C220.942 28.3983 217.561 40.6198 210.942 51.1252C201.572 69.5156 192.553 80.5266 155.542 118.596C123.684 151.16 114.665 166.388 114.9 185.598C114.9 195.789 119.702 213.242 121.81 211.251C121.621 208.523 121.029 205.839 120.053 203.285C118.115 197.357 117.281 191.124 117.594 184.895C117.317 178.749 118.693 172.642 121.576 167.207C127.666 153.151 139.144 138.509 165.849 111.685C209.068 67.8759 225.348 40.3488 224.411 12.8217C224.437 2.82009 221.048 -6.89082 214.807 -14.7054C204.734 -28.5275 187.048 -37.0784 156.245 -43.1695C152.269 -43.8345 148.353 -44.8137 144.532 -46.0979C156.413 -44.4673 168.157 -41.9618 179.669 -38.6013C188.267 -36.5215 196.368 -32.7594 203.505 -27.5322C210.641 -22.305 216.672 -15.7161 221.249 -8.14581C225.051 -0.938179 226.908 7.13668 226.636 15.2815C226.636 41.2858 211.996 66.9385 174.985 105.594C162.561 117.855 150.83 130.799 139.847 144.366C128.79 156.335 122.789 172.116 123.098 188.409C124.687 198.964 128.221 209.132 133.522 218.396C142.173 230.788 154.447 240.2 168.66 245.338C185.857 252.285 200.839 263.786 211.996 278.604C217.96 287.974 222.833 297.996 226.519 308.474C239.999 343.232 263.889 372.975 294.92 393.632C308.274 402.32 320.783 412.242 332.283 423.267C342.769 436.028 350.112 451.075 353.717 467.194C366.366 509.246 381.592 526.582 415.675 537.476C445.659 547.081 475.058 548.37 523.43 542.161C580.704 534.782 602.958 537.476 627.085 554.578C635.87 560.786 658.123 578.005 658.123 578.708C658.123 579.411 658.123 578.708 642.663 569.688C629.911 561.348 616.282 554.435 602.02 549.072C584.218 543.801 561.378 544.153 518.745 549.892C497.834 553.57 476.606 555.14 455.381 554.578C408.531 552.703 374.33 541.341 355.356 521.076C346.238 510.27 338.669 498.245 332.868 485.35C328.821 477.271 324.284 469.448 319.282 461.923C310.615 450.209 298.199 441.189 271.144 427.367C262.359 422.916 251.35 416.708 246.431 413.663C229.92 402.506 216.179 387.721 206.257 370.439C200.558 357.407 195.935 343.931 192.436 330.144C190.588 323.624 188.279 317.243 185.526 311.051C178.03 296.409 164.912 286.569 135.045 273.216C122.307 268.469 110.67 261.175 100.845 251.78C88.5684 238.758 79.2933 223.205 73.6719 206.214C70.2758 190.566 72.6468 174.217 80.3481 160.179C87.3755 146.123 96.0426 135.581 121.576 110.279C153.902 78.3011 161.749 69.3987 169.48 55.6937C174.161 48.2369 176.488 39.5423 176.156 30.7436C174.867 15.1644 163.155 5.79336 137.153 -0.532013C116.594 -4.87518 95.7166 -7.53897 74.726 -8.4972C52.8798 -9.7029 31.1527 -12.5219 9.72201 -16.931C-0.233577 -19.7423 0.000471997 -19.8593 0.000471997 -13.534C0.000471997 -9.31707 0.000514967 -7.91167 1.87451 -7.56026C20.7071 -4.18601 39.7095 -1.83975 58.7972 -0.532013C118.765 5.44195 137.505 9.89321 150.037 21.1383C162.569 32.3834 159.993 48.3139 143.478 69.7498C139.964 74.3182 126.261 88.8433 113.026 101.845C85.1499 129.49 74.7258 142.023 66.1758 159.359C59.6293 170.61 55.8553 183.258 55.166 196.257C54.4906 202.474 55.048 208.763 56.8059 214.765C62.8493 236.113 75.4732 255.01 92.8801 268.765C101.532 274.19 110.532 279.042 119.819 283.29C149.451 297.346 159.056 303.906 166.669 315.736C173.656 327.695 178.232 340.907 180.138 354.626C181.989 367.224 185.948 379.421 191.85 390.704C204.809 411.91 224.286 428.348 247.367 437.558C280.982 453.254 290.001 458.643 300.191 469.302C309.516 479.93 317.393 491.747 323.616 504.443C332.471 522.133 346.698 536.566 364.258 545.675C384.341 554.588 405.744 560.166 427.622 562.191C453.717 564.339 479.959 563.947 505.979 561.02C520.862 559.23 535.849 558.448 550.837 558.677C589.137 558.677 589.254 558.677 645.825 595.927C664.719 606.415 684.282 615.65 704.388 623.571C724.629 631.263 746.24 634.693 767.869 633.645C774.428 633.645 792.465 631.185 808.042 629.076C852.667 622.751 867.659 622.634 895.652 629.076C910.235 630.859 924.154 636.21 936.177 644.656L938.988 647.818V630.248C938.988 609.046 940.042 610.452 922.473 607.523C888.81 603.081 854.771 602.218 820.926 604.946C801.451 606.844 781.839 606.844 762.364 604.946C738.273 600.16 715.205 591.201 694.198 578.473C679.416 569.089 665.145 558.924 651.447 548.018C643.203 541.411 634.428 535.495 625.211 530.33C608.721 523.899 590.877 521.723 573.325 524.005C558.919 525.176 555.054 525.645 523.079 530.565C479.742 537.124 453.624 536.304 426.1 527.519C416.302 524.981 407.136 520.446 399.174 514.197C391.213 507.948 384.629 500.121 379.835 491.207C373.736 478.872 369.4 465.741 366.952 452.2C364.857 439.772 360.909 427.729 355.239 416.474C345.198 403.305 332.809 392.105 318.696 383.441C305.048 374.646 292.123 364.775 280.045 353.923C259.773 336.863 243.736 315.331 233.195 291.021C219.023 262.322 207.779 251.545 176.156 235.849C164.235 231.492 153.63 224.153 145.352 214.531C139.155 206.339 135.822 196.338 135.865 186.066C135.033 180 135.8 173.822 138.09 168.144C143.127 153.619 151.911 141.438 177.913 113.208C196.55 95.2854 212.348 74.6274 224.762 51.9452C244.556 12.4703 235.772 -23.1393 202.275 -40.0069C187.4 -47.5037 172.174 -51.7207 133.288 -57.6946C119.018 -60.1677 104.478 -60.6797 90.0693 -59.2171L89.4838 -58.983Z" fill="#7f5eff"/>
</svg>
